<svg width="62" height="55" viewBox="0 0 62 55" fill="none" xmlns="http://www.w3.org/2000/svg">
<path d="M37.1892 26.0738H44.689C45.0969 26.076 45.5012 26.0036 45.8788 25.8608C46.2564 25.718 46.5998 25.5076 46.8894 25.2417L61.0833 12.1C61.3738 11.8333 61.6043 11.5159 61.7617 11.1662C61.919 10.8166 62 10.4415 62 10.0628C62 9.68397 61.919 9.30893 61.7617 8.95927C61.6043 8.60961 61.3738 8.29226 61.0833 8.02551L53.5835 1.08166C53.2954 0.812721 52.9526 0.599257 52.5749 0.453584C52.1973 0.30791 51.7922 0.23291 51.3831 0.23291C50.974 0.23291 50.5689 0.30791 50.1913 0.453584C49.8136 0.599257 49.4708 0.812721 49.1827 1.08166L34.9889 14.2233C34.4225 14.7732 34.1015 15.5009 34.0901 16.2606V23.2044C34.0901 23.9654 34.4166 24.6953 34.9978 25.2334C35.579 25.7715 36.3673 26.0738 37.1892 26.0738ZM40.2883 17.4657L51.3831 7.1934L54.4822 10.0628L43.3874 20.3351H40.2883V17.4657ZM58.8829 23.2044C58.061 23.2044 57.2727 23.5067 56.6915 24.0448C56.1103 24.583 55.7838 25.3128 55.7838 26.0738V46.1593C55.7838 46.9203 55.4573 47.6501 54.8761 48.1882C54.2949 48.7264 53.5067 49.0287 52.6847 49.0287H9.2973C8.47537 49.0287 7.6871 48.7264 7.10591 48.1882C6.52472 47.6501 6.1982 46.9203 6.1982 46.1593V18.5848L24.4209 35.4853C25.2858 36.2964 26.316 36.9405 27.4518 37.3801C28.5876 37.8197 29.8064 38.046 31.0375 38.046C32.2686 38.046 33.4874 37.8197 34.6232 37.3801C35.759 36.9405 36.7892 36.2964 37.6541 35.4853C38.2219 34.9489 38.54 34.2278 38.54 33.4767C38.54 32.7257 38.2219 32.0046 37.6541 31.4682C37.3655 31.1949 37.0208 30.9777 36.6403 30.8295C36.2597 30.6812 35.8511 30.6049 35.4382 30.6049C35.0254 30.6049 34.6167 30.6812 34.2362 30.8295C33.8557 30.9777 33.511 31.1949 33.2224 31.4682C32.6431 31.9939 31.8642 32.2884 31.053 32.2884C30.2418 32.2884 29.4629 31.9939 28.8836 31.4682L10.5679 14.539H24.7928C25.6147 14.539 26.403 14.2367 26.9842 13.6985C27.5654 13.1604 27.8919 12.4306 27.8919 11.6696C27.8919 10.9086 27.5654 10.1788 26.9842 9.64066C26.403 9.10255 25.6147 8.80024 24.7928 8.80024H9.2973C6.83151 8.80024 4.4667 9.70716 2.72312 11.3215C0.979535 12.9358 0 15.1253 0 17.4083V46.1019C0 48.3849 0.979535 50.5744 2.72312 52.1888C4.4667 53.8031 6.83151 54.71 9.2973 54.71H52.6847C55.1505 54.71 57.5153 53.8031 59.2589 52.1888C61.0025 50.5744 61.982 48.3849 61.982 46.1019V26.0164C61.982 25.2554 61.6555 24.5256 61.0743 23.9875C60.4931 23.4493 59.7049 23.147 58.8829 23.147V23.2044Z" fill="black"/>
</svg>
