<svg width="17" height="25" viewBox="0 0 17 25" fill="none" xmlns="http://www.w3.org/2000/svg">
<path d="M16.0848 9.99064C15.9819 9.84407 15.8433 9.72408 15.6809 9.64121C15.5186 9.55835 15.3376 9.51515 15.1539 9.51542H11.7892V7.35531H14.2567C14.5541 7.35531 14.8394 7.24152 15.0497 7.03897C15.2601 6.83642 15.3782 6.56171 15.3782 6.27526V1.95505C15.3782 1.6686 15.2601 1.39389 15.0497 1.19134C14.8394 0.988791 14.5541 0.875 14.2567 0.875H10.6677C8.94243 0.875 7.28784 1.53499 6.0679 2.70977C4.84796 3.88456 4.16261 5.47791 4.16261 7.1393V9.51542H1.69517C1.39771 9.51542 1.11244 9.62921 0.902107 9.83176C0.691773 10.0343 0.573608 10.309 0.573608 10.5955V14.9157C0.573608 15.2021 0.691773 15.4768 0.902107 15.6794C1.11244 15.8819 1.39771 15.9957 1.69517 15.9957H4.16261V23.5561C4.16261 23.8425 4.28078 24.1173 4.49111 24.3198C4.70144 24.5224 4.98672 24.6362 5.28417 24.6362H10.6677C10.9651 24.6362 11.2504 24.5224 11.4607 24.3198C11.6711 24.1173 11.7892 23.8425 11.7892 23.5561V15.9957H13.3594C13.5841 15.9959 13.8036 15.9312 13.9895 15.8099C14.1755 15.6886 14.3194 15.5163 14.4025 15.3153L16.197 10.9951C16.2647 10.8315 16.2899 10.6545 16.2704 10.4795C16.2508 10.3044 16.1871 10.1366 16.0848 9.99064ZM12.5968 13.8356H10.6677C10.3702 13.8356 10.0849 13.9494 9.87461 14.152C9.66428 14.3545 9.54611 14.6292 9.54611 14.9157V22.476H6.40574V14.9157C6.40574 14.6292 6.28757 14.3545 6.07724 14.152C5.8669 13.9494 5.58163 13.8356 5.28417 13.8356H2.81673V11.6755H5.28417C5.58163 11.6755 5.8669 11.5617 6.07724 11.3592C6.28757 11.1566 6.40574 10.8819 6.40574 10.5955V7.1393C6.4087 6.05168 6.85867 5.00942 7.6573 4.24035C8.45593 3.47128 9.53825 3.03796 10.6677 3.0351H13.1351V5.19521H12.2379C11.8581 5.14193 11.4711 5.16429 11.1007 5.2609C10.7303 5.3575 10.3844 5.5263 10.0845 5.75684C9.90246 5.94033 9.76092 6.15743 9.6684 6.39502C9.57588 6.63262 9.53428 6.8858 9.54611 7.1393V10.5955C9.54611 10.8819 9.66428 11.1566 9.87461 11.3592C10.0849 11.5617 10.3702 11.6755 10.6677 11.6755H13.494L12.5968 13.8356Z" fill="white"/>
</svg>
