<svg width="25" height="25" viewBox="0 0 25 25" fill="none" xmlns="http://www.w3.org/2000/svg">
<path d="M19.175 4.78744C18.8783 4.78744 18.5883 4.87105 18.3416 5.02771C18.095 5.18436 17.9027 5.40702 17.7892 5.66753C17.6756 5.92803 17.6459 6.21469 17.7038 6.49124C17.7617 6.76779 17.9046 7.02182 18.1143 7.22121C18.3241 7.42059 18.5914 7.55637 18.8824 7.61138C19.1733 7.66639 19.4749 7.63816 19.749 7.53025C20.0231 7.42235 20.2574 7.23962 20.4222 7.00517C20.587 6.77072 20.675 6.49508 20.675 6.21311C20.675 5.83499 20.517 5.47237 20.2357 5.20501C19.9544 4.93764 19.5728 4.78744 19.175 4.78744ZM24.925 7.66254C24.9007 6.6768 24.7064 5.70153 24.35 4.77556C24.0322 3.98328 23.5375 3.26587 22.9 2.67269C22.281 2.06373 21.5245 1.59652 20.6875 1.30643C19.7158 0.95733 18.6886 0.768488 17.65 0.748041C16.325 0.676758 15.9 0.676758 12.5 0.676758C9.1 0.676758 8.675 0.676758 7.35 0.748041C6.31144 0.768488 5.28418 0.95733 4.3125 1.30643C3.4771 1.59946 2.72117 2.06626 2.1 2.67269C1.45928 3.26099 0.967721 3.98008 0.6625 4.77556C0.295201 5.69908 0.0965125 6.67544 0.0749999 7.66254C-6.70552e-08 8.92188 0 9.32582 0 12.5573C0 15.7888 -6.70552e-08 16.1928 0.0749999 17.4521C0.0965125 18.4392 0.295201 19.4156 0.6625 20.3391C0.967721 21.1346 1.45928 21.8537 2.1 22.442C2.72117 23.0484 3.4771 23.5152 4.3125 23.8082C5.28418 24.1573 6.31144 24.3462 7.35 24.3666C8.675 24.4379 9.1 24.4379 12.5 24.4379C15.9 24.4379 16.325 24.4379 17.65 24.3666C18.6886 24.3462 19.7158 24.1573 20.6875 23.8082C21.5245 23.5181 22.281 23.0509 22.9 22.442C23.5403 21.851 24.0354 21.133 24.35 20.3391C24.7064 19.4131 24.9007 18.4379 24.925 17.4521C24.925 16.1928 25 15.7888 25 12.5573C25 9.32582 25 8.92188 24.925 7.66254ZM22.675 17.3096C22.6659 18.0637 22.5222 18.8109 22.25 19.5194C22.0504 20.0364 21.7298 20.5036 21.3125 20.8856C20.9071 21.2783 20.4165 21.5823 19.875 21.7767C19.1296 22.0354 18.3435 22.1719 17.55 22.1806C16.3 22.24 15.8375 22.2519 12.55 22.2519C9.2625 22.2519 8.8 22.2519 7.55 22.1806C6.72611 22.1953 5.90574 22.0747 5.125 21.8242C4.60723 21.6199 4.13919 21.3166 3.75 20.9331C3.33511 20.5515 3.01855 20.0839 2.825 19.5669C2.51982 18.8483 2.35055 18.0841 2.325 17.3096C2.325 16.1215 2.25 15.6819 2.25 12.5573C2.25 9.43274 2.25 8.99316 2.325 7.8051C2.3306 7.03412 2.47869 6.27007 2.7625 5.54779C2.98256 5.04633 3.32033 4.59932 3.75 4.24093C4.12977 3.83244 4.59911 3.50801 5.125 3.29048C5.88694 3.02916 6.69 2.89258 7.5 2.88654C8.75 2.88654 9.2125 2.81526 12.5 2.81526C15.7875 2.81526 16.25 2.81526 17.5 2.88654C18.2935 2.89519 19.0796 3.03178 19.825 3.29048C20.393 3.49085 20.9029 3.81661 21.3125 4.24093C21.7221 4.60588 22.0422 5.05206 22.25 5.54779C22.5278 6.27124 22.6716 7.03498 22.675 7.8051C22.7375 8.99316 22.75 9.43274 22.75 12.5573C22.75 15.6819 22.7375 16.1215 22.675 17.3096ZM12.5 6.4626C11.2323 6.46495 9.9937 6.82439 8.94082 7.49552C7.88793 8.16664 7.06797 9.11933 6.58454 10.2332C6.10111 11.3471 5.9759 12.5721 6.22474 13.7536C6.47358 14.9351 7.0853 16.02 7.98259 16.8711C8.8799 17.7223 10.0225 18.3016 11.2661 18.5358C12.5096 18.77 13.7983 18.6486 14.9693 18.187C16.1403 17.7253 17.1411 16.9442 17.8452 15.9421C18.5492 14.9401 18.925 13.7623 18.925 12.5573C18.9267 11.7555 18.7615 10.9613 18.439 10.2204C18.1166 9.47944 17.6432 8.80641 17.0461 8.23999C16.449 7.67357 15.7399 7.22495 14.9597 6.91992C14.1796 6.61488 13.3436 6.45946 12.5 6.4626ZM12.5 16.5136C11.6767 16.5136 10.872 16.2815 10.1874 15.8468C9.50292 15.4121 8.9694 14.7942 8.65435 14.0713C8.3393 13.3484 8.25687 12.5529 8.41748 11.7855C8.57809 11.0181 8.97453 10.3131 9.55667 9.75985C10.1388 9.20656 10.8805 8.82977 11.6879 8.67712C12.4954 8.52447 13.3323 8.60281 14.0929 8.90225C14.8535 9.20169 15.5036 9.70877 15.961 10.3594C16.4184 11.01 16.6625 11.7749 16.6625 12.5573C16.6625 13.0769 16.5548 13.5913 16.3456 14.0713C16.1365 14.5513 15.8299 14.9874 15.4433 15.3548C15.0568 15.7222 14.5979 16.0136 14.0929 16.2124C13.5879 16.4112 13.0466 16.5136 12.5 16.5136Z" fill="white"/>
</svg>
