<svg width="26" height="26" viewBox="0 0 26 26" fill="none" xmlns="http://www.w3.org/2000/svg">
<path d="M19.275 9.46742C18.1905 9.46698 17.1228 9.72194 16.1672 10.2095C16.08 9.99124 15.9251 9.80335 15.7228 9.6708C15.5206 9.53825 15.2807 9.46731 15.0351 9.46742H10.1895C10.0304 9.46733 9.87283 9.49705 9.72581 9.55488C9.5788 9.61271 9.44522 9.69752 9.33271 9.80445C9.22021 9.91139 9.13098 10.0383 9.07013 10.1781C9.00928 10.3178 8.97801 10.4676 8.9781 10.6188V24.4352C8.97801 24.5865 9.00928 24.7362 9.07013 24.8759C9.13097 25.0157 9.2202 25.1426 9.33271 25.2496C9.44522 25.3565 9.5788 25.4413 9.72581 25.4991C9.87283 25.557 10.0304 25.5867 10.1895 25.5866H15.0351C15.1942 25.5867 15.3518 25.557 15.4988 25.4991C15.6458 25.4413 15.7794 25.3565 15.8919 25.2496C16.0044 25.1426 16.0936 25.0157 16.1545 24.8759C16.2153 24.7362 16.2466 24.5865 16.2465 24.4352V18.1027C16.2465 17.7973 16.3741 17.5045 16.6013 17.2886C16.8285 17.0726 17.1366 16.9513 17.4579 16.9513C17.7792 16.9513 18.0873 17.0726 18.3145 17.2886C18.5417 17.5045 18.6693 17.7973 18.6693 18.1027V24.4352C18.6692 24.5865 18.7005 24.7362 18.7613 24.8759C18.8222 25.0157 18.9114 25.1426 19.0239 25.2496C19.1364 25.3565 19.27 25.4413 19.417 25.4991C19.564 25.557 19.7216 25.5867 19.8807 25.5866H24.7263C24.8854 25.5867 25.043 25.557 25.19 25.4991C25.337 25.4413 25.4706 25.3565 25.5831 25.2496C25.6956 25.1426 25.7848 25.0157 25.8457 24.8759C25.9065 24.7362 25.9378 24.5865 25.9377 24.4352V15.8C25.9355 14.1211 25.2328 12.5116 23.9838 11.3245C22.7348 10.1374 21.0414 9.4695 19.275 9.46742ZM23.5149 23.2839H21.0921V18.1027C21.0921 17.1866 20.7092 16.308 20.0277 15.6603C19.3461 15.0125 18.4218 14.6486 17.4579 14.6486C16.4941 14.6486 15.5697 15.0125 14.8881 15.6603C14.2066 16.308 13.8237 17.1866 13.8237 18.1027V23.2839H11.4009V11.7702H13.8237V12.5797C13.8238 12.8183 13.9019 13.0509 14.0471 13.2455C14.1924 13.4401 14.3976 13.587 14.6344 13.666C14.8713 13.745 15.1281 13.7521 15.3694 13.6865C15.6107 13.6208 15.8246 13.4855 15.9815 13.2993C16.5252 12.6431 17.2708 12.1646 18.1145 11.9306C18.9581 11.6967 19.8575 11.7189 20.6872 11.9943C21.5168 12.2697 22.2353 12.7845 22.7422 13.4668C23.2492 14.149 23.5193 14.9647 23.5149 15.8V23.2839ZM6.55531 9.46742H1.70971C1.5506 9.46733 1.39303 9.49705 1.24602 9.55488C1.099 9.61271 0.965422 9.69752 0.852915 9.80445C0.740408 9.91139 0.65118 10.0383 0.590334 10.1781C0.529488 10.3178 0.498216 10.4676 0.498307 10.6188V24.4352C0.498214 24.5865 0.529485 24.7362 0.590331 24.8759C0.651177 25.0157 0.740404 25.1426 0.852911 25.2496C0.965419 25.3565 1.099 25.4413 1.24601 25.4991C1.39303 25.557 1.5506 25.5867 1.70971 25.5866H6.55531C6.71441 25.5867 6.87198 25.557 7.019 25.4991C7.16601 25.4413 7.29959 25.3565 7.4121 25.2496C7.52461 25.1426 7.61383 25.0157 7.67468 24.8759C7.73553 24.7362 7.7668 24.5865 7.7667 24.4352V10.6188C7.7668 10.4676 7.73552 10.3178 7.67468 10.1781C7.61383 10.0383 7.5246 9.91139 7.4121 9.80445C7.29959 9.69752 7.16601 9.61271 7.01899 9.55488C6.87198 9.49705 6.71441 9.46733 6.55531 9.46742ZM5.34391 23.2839H2.92111V11.7702H5.34391V23.2839ZM4.15025 0.881651C3.6201 0.851489 3.08903 0.924133 2.58934 1.09517C2.08965 1.2662 1.63178 1.53205 1.24358 1.87654C0.855382 2.22104 0.544964 2.63698 0.331204 3.09907C0.117445 3.56117 0.00481016 4.05976 0.000150728 4.56453C-0.0045087 5.0693 0.0989043 5.56969 0.304101 6.03528C0.509297 6.50087 0.811989 6.92192 1.19377 7.27284C1.57555 7.62375 2.02844 7.89719 2.52489 8.07653C3.02135 8.25587 3.551 8.33736 4.08163 8.31605H4.11593C4.64749 8.34606 5.17991 8.27274 5.68064 8.10057C6.18138 7.9284 6.63993 7.661 7.02826 7.31471C7.41659 6.96842 7.72656 6.55051 7.93922 6.08651C8.15188 5.62251 8.26276 5.12218 8.26509 4.61607C8.26743 4.10997 8.16117 3.60873 7.9528 3.14298C7.74443 2.67723 7.43834 2.25675 7.05321 1.90723C6.66809 1.55771 6.21203 1.2865 5.7129 1.11017C5.21377 0.93383 4.68207 0.856075 4.15025 0.881651ZM4.11595 6.01331H4.08163C3.87214 6.03749 3.65963 6.01881 3.45835 5.95853C3.25708 5.89826 3.07169 5.79778 2.91462 5.66382C2.75755 5.52987 2.63243 5.36555 2.54765 5.18187C2.46287 4.9982 2.42039 4.79942 2.42306 4.59886C2.42306 3.73982 3.10093 3.18438 4.15025 3.18438C4.36188 3.15757 4.5771 3.17417 4.78141 3.23306C4.98572 3.29196 5.17438 3.39179 5.33468 3.52582C5.49498 3.65985 5.6232 3.82498 5.7107 4.01007C5.7982 4.19517 5.84296 4.39594 5.84195 4.59886C5.84195 5.45789 5.16409 6.01331 4.11595 6.01331Z" fill="white"/>
</svg>
