<svg width="44" height="55" viewBox="0 0 44 55" fill="none" xmlns="http://www.w3.org/2000/svg">
<path d="M22 0C16.1652 0 10.5695 2.29581 6.44365 6.38237C2.31785 10.4689 0 16.0115 0 21.7908C0 36.4995 19.3875 53.115 20.2125 53.8232C20.7106 54.2452 21.3445 54.4771 22 54.4771C22.6555 54.4771 23.2894 54.2452 23.7875 53.8232C24.75 53.115 44 36.4995 44 21.7908C44 16.0115 41.6822 10.4689 37.5564 6.38237C33.4305 2.29581 27.8348 0 22 0ZM22 48.0759C16.1425 42.6282 5.5 30.8884 5.5 21.7908C5.5 17.4563 7.23839 13.2994 10.3327 10.2345C13.4271 7.16955 17.6239 5.44769 22 5.44769C26.3761 5.44769 30.5729 7.16955 33.6673 10.2345C36.7616 13.2994 38.5 17.4563 38.5 21.7908C38.5 30.8884 27.8575 42.6554 22 48.0759ZM22 10.8954C19.8244 10.8954 17.6977 11.5344 15.8887 12.7316C14.0798 13.9288 12.6699 15.6304 11.8373 17.6213C11.0048 19.6122 10.7869 21.8029 11.2114 23.9163C11.6358 26.0298 12.6834 27.9712 14.2218 29.495C15.7602 31.0187 17.7202 32.0564 19.854 32.4768C21.9878 32.8972 24.1995 32.6814 26.2095 31.8568C28.2195 31.0321 29.9375 29.6357 31.1462 27.8439C32.3549 26.0522 33 23.9457 33 21.7908C33 18.9011 31.8411 16.1298 29.7782 14.0866C27.7153 12.0433 24.9174 10.8954 22 10.8954ZM22 27.2385C20.9122 27.2385 19.8488 26.919 18.9444 26.3204C18.0399 25.7218 17.3349 24.8709 16.9187 23.8755C16.5024 22.8801 16.3935 21.7847 16.6057 20.728C16.8179 19.6712 17.3417 18.7005 18.1109 17.9387C18.8801 17.1768 19.8601 16.6579 20.927 16.4478C21.9939 16.2375 23.0998 16.3454 24.1048 16.7578C25.1098 17.1701 25.9687 17.8683 26.5731 18.7642C27.1774 19.6601 27.5 20.7133 27.5 21.7908C27.5 23.2356 26.9205 24.6212 25.8891 25.6429C24.8576 26.6645 23.4587 27.2385 22 27.2385Z" fill="black"/>
</svg>
