<svg width="53" height="51" viewBox="0 0 53 51" fill="none" xmlns="http://www.w3.org/2000/svg">
<path d="M46.4308 28.1255C45.8457 28.1255 45.234 27.9481 44.6489 27.8214C43.4641 27.5725 42.2997 27.2421 41.1649 26.8328C39.9311 26.405 38.5749 26.4273 37.3573 26.8952C36.1396 27.3631 35.1466 28.2437 34.5692 29.3675L33.9841 30.5082C31.3938 29.1348 29.0134 27.4291 26.9098 25.4387C24.8214 23.4338 23.0317 21.1652 21.5907 18.6964L22.7077 17.9867C23.8868 17.4364 24.8108 16.49 25.3018 15.3295C25.7928 14.169 25.8161 12.8765 25.3672 11.7006C24.9449 10.6168 24.5984 9.50753 24.33 8.38009C24.197 7.82245 24.0906 7.23947 24.0108 6.65649C23.6879 4.87108 22.7067 3.25424 21.2439 2.09714C19.7811 0.940033 17.933 0.318704 16.0322 0.345043H8.05356C6.90737 0.334786 5.77233 0.56002 4.72569 1.00541C3.67905 1.45081 2.74539 2.1059 1.98827 2.9261C1.23115 3.7463 0.668349 4.71234 0.338175 5.75847C0.00800176 6.8046 -0.0817903 7.90625 0.074912 8.98842C1.49175 19.6073 6.58024 29.4737 14.5366 37.0291C22.493 44.5844 32.8637 49.3981 44.0106 50.7098H45.0213C46.9825 50.7126 48.876 50.0268 50.3404 48.7835C51.1818 48.0662 51.8539 47.187 52.3123 46.2039C52.7708 45.2208 53.0051 44.1562 52.9999 43.0803V35.4762C52.9673 33.7155 52.2946 32.0202 51.0966 30.6797C49.8985 29.3391 48.2495 28.4363 46.4308 28.1255V28.1255ZM47.7606 43.3338C47.7601 43.6937 47.6792 44.0494 47.5233 44.3772C47.3674 44.7049 47.1401 44.9973 46.8564 45.2349C46.5601 45.4807 46.2127 45.6643 45.8369 45.7735C45.4611 45.8827 45.0654 45.9151 44.6755 45.8685C34.7153 44.6514 25.4636 40.3086 18.3798 33.5252C11.2961 26.7418 6.78338 17.9039 5.55358 8.40544C5.51125 8.03415 5.54835 7.65853 5.66263 7.30129C5.77691 6.94405 5.966 6.6126 6.21847 6.32697C6.46769 6.0566 6.77448 5.8399 7.1184 5.69131C7.46233 5.54271 7.83551 5.46562 8.21313 5.46517H16.1918C16.8102 5.45205 17.4142 5.64483 17.8996 6.01031C18.385 6.3758 18.7216 6.89112 18.8513 7.46759C18.9577 8.16042 19.0907 8.84479 19.2503 9.52071C19.5575 10.8569 19.9664 12.1699 20.4736 13.4495L16.7503 15.0971C16.4319 15.2363 16.1456 15.4341 15.9076 15.679C15.6697 15.924 15.4849 16.2114 15.3638 16.5246C15.2427 16.8379 15.1877 17.1708 15.202 17.5044C15.2163 17.8379 15.2996 18.1655 15.4471 18.4683C19.2747 26.2822 25.8652 32.5633 34.0639 36.2113C34.7114 36.4648 35.4377 36.4648 36.0852 36.2113C36.4169 36.0982 36.7217 35.9235 36.9819 35.6972C37.2421 35.4709 37.4526 35.1976 37.6011 34.8932L39.2501 31.3446C40.6249 31.8132 42.0282 32.2026 43.4521 32.5106C44.1613 32.6627 44.8794 32.7894 45.6064 32.8908C46.2112 33.0145 46.7519 33.3352 47.1354 33.7979C47.5189 34.2605 47.7212 34.8361 47.7074 35.4255L47.7606 43.3338Z" fill="black"/>
</svg>
